<svg xmlns="http://www.w3.org/2000/svg" width="59.999" height="119.998" viewBox="0 0 59.999 119.998"><defs><style>.a{isolation:isolate;}.b{fill:#e0e0e0;}</style></defs><g class="a" transform="translate(-323.81 -245.047)"><g class="a"><path class="b" d="M383.809,347.045v18h-60v-29c0-14,10.4-21.4,20.2-28.4l14.8-10.6a12.628,12.628,0,0,0,5-10v-19a5.221,5.221,0,0,0-5-5h-10a5.221,5.221,0,0,0-5,5v17h-20v-20a20.058,20.058,0,0,1,20-20h20a20.059,20.059,0,0,1,20,20v25c0,14-10,20.2-19.8,27.6l-15.2,11.4a12.973,12.973,0,0,0-5,10v8Z"/></g></g></svg>