<svg xmlns="http://www.w3.org/2000/svg" width="61.999" height="119.998" viewBox="0 0 61.999 119.998"><defs><style>.a{isolation:isolate;}.b{fill:#e0e0e0;}</style></defs><g class="a" transform="translate(-322.81 -483.047)"><g class="a"><path class="b" d="M322.81,583.045v-8h20v5a5.221,5.221,0,0,0,5,5h12a5.221,5.221,0,0,0,5-5v-20a10.444,10.444,0,0,0-10-10h-12.2v-18h15.2a5.222,5.222,0,0,0,5-5v-21a5.221,5.221,0,0,0-5-5h-10a5.221,5.221,0,0,0-5,5v7h-20v-10a20.058,20.058,0,0,1,20-20h20a20.059,20.059,0,0,1,20,20v17.8c0,9.8-6.6,17.6-15.2,19v1c8.6.6,17.2,8.6,17.2,19.6v22.6a20.059,20.059,0,0,1-20,20h-22A20.058,20.058,0,0,1,322.81,583.045Z"/></g></g></svg>