<svg xmlns="http://www.w3.org/2000/svg" width="217.81" height="69.082" viewBox="0 0 217.81 69.082"><defs><style>.a{fill:#424242;}.b{fill:#363636;}.c{fill:#797979;}.d{fill:#393939;}.e{fill:#575759;}</style></defs><g transform="translate(-33 -32)"><g transform="translate(-250.344 -592.285)"><rect class="a" width="5.312" height="5.314" transform="translate(479.904 672.111)"/><rect class="a" width="5.312" height="5.314" transform="translate(474.592 677.425)"/><rect class="b" width="5.312" height="5.314" transform="translate(293.969 629.599)"/><rect class="b" width="5.312" height="5.314" transform="translate(288.656 634.913)"/><rect class="b" width="5.312" height="5.314" transform="translate(288.656 677.425)"/><rect class="b" width="5.312" height="5.314" transform="translate(293.969 682.739)"/><path class="b" d="M283.344,645.543v31.884h5.312v-37.2h-5.312Z"/><path class="b" d="M479.9,624.285H299.282V629.6H485.217v-5.314Z"/><rect class="b" width="5.312" height="5.314" transform="translate(485.217 629.599)"/><rect class="b" width="5.312" height="5.314" transform="translate(490.529 634.913)"/><path class="b" d="M495.842,645.543v31.884h5.312v-37.2h-5.312Z"/><rect class="b" width="5.312" height="5.314" transform="translate(490.529 677.425)"/><path class="b" d="M474.592,688.053H299.282v5.314H485.217v-5.314Z"/><rect class="b" width="5.312" height="5.314" transform="translate(485.217 682.739)"/><path class="c" d="M479.9,634.913h-5.312V629.6H299.282v5.314H293.97v5.314h-5.312v37.2H394.907v-5.314h0v5.314h53.124v5.314h10.625v-5.314h5.312v5.314h10.625v-10.63H479.9V666.8h5.312v-26.57H479.9Z"/><rect class="d" width="5.312" height="5.314" transform="translate(479.904 629.599)"/><rect class="d" width="5.312" height="5.314" transform="translate(485.217 634.913)"/><path class="d" d="M490.529,645.543v26.57h-5.312v5.314H479.9v5.314h-5.312v-5.314H463.968v5.314H299.282v5.314H485.217v-5.312h5.312v-5.314h5.312v-37.2h-5.312Z"/><rect class="e" width="5.312" height="5.314" transform="translate(474.592 629.599)"/><rect class="e" width="5.312" height="5.314" transform="translate(479.904 634.913)"/><path class="e" d="M474.592,677.425H293.969v5.314h180.78v-5.314H479.9v-5.312h-5.312Z"/><path class="e" d="M485.217,640.227V666.8H479.9v5.314H490.53V640.227Z"/></g></g></svg>