<svg xmlns="http://www.w3.org/2000/svg" width="217.81" height="69.082" viewBox="0 0 217.81 69.082"><defs><style>.a{fill:#a81616;}.b{fill:#363633;}.c{fill:#db1d1d;}.d{fill:#911313;}.e{fill:#bf1919;}</style></defs><rect class="a" width="5.312" height="5.314" transform="translate(196.56 47.826)"/><rect class="a" width="5.312" height="5.314" transform="translate(191.248 53.14)"/><rect class="b" width="5.312" height="5.314" transform="translate(10.625 5.314)"/><rect class="b" width="5.312" height="5.314" transform="translate(5.312 10.628)"/><rect class="b" width="5.312" height="5.314" transform="translate(5.312 53.14)"/><rect class="b" width="5.312" height="5.314" transform="translate(10.625 58.454)"/><path class="b" d="M-407.236,978.5v31.884h5.312v-37.2h-5.312Z" transform="translate(407.236 -957.242)"/><path class="b" d="M-201.864,948.428H-382.486v5.314h185.935v-5.314Z" transform="translate(398.424 -948.428)"/><rect class="b" width="5.312" height="5.314" transform="translate(201.873 5.314)"/><rect class="b" width="5.312" height="5.314" transform="translate(207.185 10.628)"/><path class="b" d="M-77.244,978.5v31.884h5.312v-37.2h-5.312Z" transform="translate(289.742 -957.242)"/><rect class="b" width="5.312" height="5.314" transform="translate(207.185 53.14)"/><path class="b" d="M-207.176,1047.454h-175.31v5.314h185.935v-5.314h-10.625Z" transform="translate(398.424 -983.686)"/><rect class="b" width="5.312" height="5.314" transform="translate(201.873 58.454)"/><path class="c" d="M-207.738,961.994h-5.312V956.68h-175.31v5.314h-5.312v5.314h-5.312v37.2h106.249v-5.314h0v5.314h53.124v5.314h10.625v-5.314h5.312v5.314h10.625V999.192h5.312v-5.314h5.312v-26.57h-5.312Z" transform="translate(404.298 -951.366)"/><rect class="d" width="5.312" height="5.314" transform="translate(196.56 5.314)"/><rect class="d" width="5.312" height="5.314" transform="translate(201.873 10.628)"/><path class="d" d="M-191.239,978.5v26.57h-5.312v5.314h-5.312v5.314h-5.312v-5.314H-217.8v5.314H-382.486v5.314h185.935V1015.7h5.312v-5.314h5.312v-37.2h-5.312Z" transform="translate(398.424 -957.242)"/><g transform="translate(10.625 5.314)"><rect class="e" width="5.312" height="5.314" transform="translate(180.623)"/><rect class="e" width="5.312" height="5.314" transform="translate(185.935 5.314)"/><path class="e" d="M-210.113,1028.012H-390.736v5.314h180.78v-5.314h5.156V1022.7h-5.312Z" transform="translate(390.736 -980.186)"/><path class="e" d="M-96.681,973.184v26.57h-5.312v5.314h10.625V973.184Z" transform="translate(287.929 -962.556)"/></g></svg>