<svg xmlns="http://www.w3.org/2000/svg" width="223.275" height="137.702" viewBox="0 0 223.275 137.702"><defs><style>.a{fill:#9db63e;}.b{fill:#829734;}.c{fill:#6c3b21;}.d{fill:#58311b;}.e{fill:#824426;}.f{fill:#422412;}.g{fill:#935f45;}</style></defs><g transform="translate(9.225)"><rect class="a" width="214.05" height="33.376"/><path class="b" d="M11.166,1039.938v5.135h7.587v5.135H36.2v4.279H52.895v-7.275h7.587v-2.14H75.655v-2.569H89.314v6.419h6.828v9.414h7.587v-9.414h12.141v-8.558h8.343v11.983h27.314v-11.554h25.037v8.558h13.658v4.279h17.451v-5.562h6.069v2.567h.31v13.973H0v-24.67Z" transform="translate(0 -1031.233)"/><rect class="c" width="214.05" height="38.509" transform="translate(0 33.376)"/><rect class="d" width="214.05" height="65.816" transform="translate(0 71.885)"/><path class="e" d="M8.131,1169.015v-11.981H29.376v6.846H52.895v-10.845h8.346v9.135H71.863v3.423H85.519v-3.423h20.486v5.133H125.73v-14.268h3.795v8.279h23.519v8.985h28.832v-6.846h18.965V1159.6h6.072v13.266h7.137v5.562H190.98v-2.569H144.7v9.414H137.87v-5.135H100.692v11.4H86.278v-18.677H71.1v8.985H59.723v-6.419H33.168v12.837H14.961v-5.562H12.684v-9.842H0v-3.852Z" transform="translate(0 -1119.658)"/><path class="f" d="M8.131,1381.731V1369.75H29.376v6.848H52.895v-10.847h8.346v9.135H71.863v3.423H85.519v-3.423h20.486v5.135H125.73v-14.27h3.795v8.279h23.519v8.987h28.832v-6.848h18.965v-3.85h6.072v13.264h7.137v5.563H190.98v-2.567H144.7v9.414H137.87v-5.135H100.692v11.4H86.278v-18.677H71.1v8.985H59.723v-6.419H33.168v12.837H14.961v-5.562H12.684v-9.841H0v-3.852Z" transform="translate(0 -1285.974)"/><path class="g" d="M657.438,1186.025h-2.684v-.1Q656.1,1185.957,657.438,1186.025Z" transform="translate(-647.158 -1145.376)"/><rect class="c" width="8.684" height="5.562" transform="translate(37.596 28.241)"/><rect class="c" width="8.682" height="5.562" transform="translate(160.295 28.241)"/><rect class="c" width="7.191" height="5.562" transform="translate(195.738 46.497)"/><rect class="c" width="7.191" height="5.564" transform="translate(202.84 54.697)"/><rect class="c" width="7.191" height="5.564" transform="translate(163.077 48.279)"/><rect class="c" width="7.191" height="5.562" transform="translate(132.304 49.85)"/><rect class="c" width="7.191" height="5.562" transform="translate(114.993 52.63)"/><rect class="c" width="7.189" height="5.562" transform="translate(90.951 45.499)"/><rect class="c" width="7.191" height="5.562" transform="translate(64.505 47.425)"/><rect class="c" width="7.191" height="5.562" transform="translate(16.557 45.499)"/><rect class="c" width="7.189" height="5.562" transform="translate(11.041 55.412)"/><rect class="c" width="7.191" height="5.562" transform="translate(39.598 52.63)"/><rect class="c" width="7.189" height="5.562" transform="translate(83.722 61.687)"/><rect class="c" width="8.682" height="5.562" transform="translate(123.253 30.744)"/><rect class="c" width="8.682" height="5.562" transform="translate(82.916 30.594)"/><rect class="f" width="8.684" height="5.562" transform="translate(34.28 97.358)"/><rect class="f" width="8.682" height="5.562" transform="translate(156.98 97.358)"/><rect class="f" width="7.191" height="5.562" transform="translate(193.407 115.614)"/><rect class="f" width="7.189" height="5.564" transform="translate(200.508 123.815)"/><rect class="f" width="7.191" height="5.562" transform="translate(159.772 117.398)"/><rect class="f" width="7.191" height="5.562" transform="translate(128.999 118.967)"/><rect class="f" width="7.191" height="5.562" transform="translate(111.689 121.747)"/><rect class="f" width="7.191" height="5.562" transform="translate(87.647 114.616)"/><rect class="f" width="7.191" height="5.562" transform="translate(61.2 116.542)"/><rect class="f" width="7.191" height="5.562" transform="translate(14.226 114.616)"/><rect class="f" width="7.189" height="5.562" transform="translate(8.71 124.529)"/><rect class="f" width="7.191" height="5.562" transform="translate(36.293 121.747)"/><rect class="f" width="7.189" height="5.564" transform="translate(80.418 130.804)"/><rect class="f" width="8.684" height="5.562" transform="translate(119.938 99.861)"/><rect class="f" width="8.682" height="5.562" transform="translate(79.601 99.711)"/><rect class="f" width="8.684" height="5.562" transform="translate(22.77 57.136)"/><rect class="f" width="8.682" height="5.562" transform="translate(155.078 57.136)"/><rect class="f" width="7.189" height="5.562" transform="translate(192.072 75.392)"/><rect class="f" width="7.191" height="5.564" transform="translate(199.171 83.593)"/><rect class="f" width="7.191" height="5.564" transform="translate(157.876 77.174)"/><rect class="f" width="7.191" height="5.562" transform="translate(127.103 78.745)"/><rect class="f" width="7.191" height="5.562" transform="translate(109.793 81.525)"/><rect class="f" width="7.191" height="5.562" transform="translate(85.751 74.394)"/><rect class="f" width="7.191" height="5.562" transform="translate(59.305 76.32)"/><rect class="f" width="7.191" height="5.562" transform="translate(12.889 74.394)"/><rect class="f" width="7.191" height="5.562" transform="translate(7.373 84.307)"/><rect class="f" width="7.191" height="5.562" transform="translate(34.397 81.525)"/><rect class="f" width="7.191" height="5.562" transform="translate(78.522 90.582)"/><rect class="f" width="8.684" height="5.562" transform="translate(118.037 59.639)"/><rect class="f" width="8.684" height="5.562" transform="translate(77.7 59.489)"/><rect class="b" width="8.363" height="5.562" transform="translate(205.688 32.199)"/><rect class="b" width="8.684" height="5.562" transform="translate(188.051 30.744)"/><rect class="b" width="8.684" height="5.562" transform="translate(135.599 32.199)"/><rect class="b" width="8.684" height="5.562" transform="translate(101.451 32.199)"/><rect class="b" width="8.682" height="5.562" transform="translate(63.64 32.199)"/><rect class="b" width="8.684" height="5.564" transform="translate(12.735 28.881)"/></g><rect class="a" width="19.89" height="26.977" transform="translate(0)"/></svg>