<svg xmlns="http://www.w3.org/2000/svg" width="223.275" height="137.702" viewBox="0 0 223.275 137.702"><defs><style>.a{fill:#9db63e;}.b{fill:#829734;}.c{fill:#6c3b21;}.d{fill:#58311b;}.e{fill:#824426;}.f{fill:#422412;}.g{fill:#935f45;}</style></defs><g transform="translate(0 0)"><rect class="a" width="214.05" height="33.376"/><path class="b" d="M202.884,1039.938v5.135H195.3v5.135h-17.45v4.279H161.155v-7.275h-7.587v-2.14H138.395v-2.569H124.736v6.419h-6.828v9.414h-7.587v-9.414H98.181v-8.558H89.839v11.983H62.525v-11.554H37.487v8.558H23.829v4.279H6.379v-5.562H.31v2.567H0v13.973H214.05v-24.67Z" transform="translate(0 -1031.233)"/><rect class="c" width="214.05" height="38.509" transform="translate(0 33.376)"/><rect class="d" width="214.05" height="65.816" transform="translate(0 71.885)"/><path class="e" d="M205.919,1169.015v-11.981H184.674v6.846H161.155v-10.845h-8.346v9.135H142.187v3.423H128.531v-3.423H108.045v5.133H88.321v-14.268H84.526v8.279H61.007v8.985H32.175v-6.846H13.209V1159.6H7.138v13.266H0v5.562H23.07v-2.569H69.352v9.414H76.18v-5.135h37.178v11.4h14.414v-18.677h15.173v8.985h11.381v-6.419h26.555v12.837h18.207v-5.562h2.277v-9.842H214.05v-3.852Z" transform="translate(0 -1119.658)"/><path class="f" d="M205.919,1381.731V1369.75H184.674v6.848H161.155v-10.847h-8.346v9.135H142.187v3.423H128.531v-3.423H108.045v5.135H88.321v-14.27H84.526v8.279H61.007v8.987H32.175v-6.848H13.209v-3.85H7.138v13.264H0v5.563H23.07v-2.567H69.352v9.414H76.18v-5.135h37.178v11.4h14.414v-18.677h15.173v8.985h11.381v-6.419h26.555v12.837h18.207v-5.562h2.277v-9.841H214.05v-3.852Z" transform="translate(0 -1285.974)"/><path class="g" d="M654.754,1186.025h2.684v-.1Q656.094,1185.957,654.754,1186.025Z" transform="translate(-450.984 -1145.376)"/><rect class="c" width="8.684" height="5.562" transform="translate(167.771 28.241)"/><rect class="c" width="8.682" height="5.562" transform="translate(45.074 28.241)"/><rect class="c" width="7.191" height="5.562" transform="translate(11.121 46.497)"/><rect class="c" width="7.191" height="5.564" transform="translate(4.02 54.697)"/><rect class="c" width="7.191" height="5.564" transform="translate(43.783 48.279)"/><rect class="c" width="7.191" height="5.562" transform="translate(74.555 49.85)"/><rect class="c" width="7.191" height="5.562" transform="translate(91.866 52.63)"/><rect class="c" width="7.189" height="5.562" transform="translate(115.91 45.499)"/><rect class="c" width="7.191" height="5.562" transform="translate(142.354 47.425)"/><rect class="c" width="7.191" height="5.562" transform="translate(190.302 45.499)"/><rect class="c" width="7.189" height="5.562" transform="translate(195.82 55.412)"/><rect class="c" width="7.191" height="5.562" transform="translate(167.262 52.63)"/><rect class="c" width="7.189" height="5.562" transform="translate(123.139 61.687)"/><rect class="c" width="8.682" height="5.562" transform="translate(82.116 30.744)"/><rect class="c" width="8.682" height="5.562" transform="translate(122.452 30.594)"/><rect class="f" width="8.684" height="5.562" transform="translate(171.086 97.358)"/><rect class="f" width="8.682" height="5.562" transform="translate(48.388 97.358)"/><rect class="f" width="7.191" height="5.562" transform="translate(13.452 115.614)"/><rect class="f" width="7.189" height="5.564" transform="translate(6.353 123.815)"/><rect class="f" width="7.191" height="5.562" transform="translate(47.087 117.398)"/><rect class="f" width="7.191" height="5.562" transform="translate(77.86 118.967)"/><rect class="f" width="7.191" height="5.562" transform="translate(95.171 121.747)"/><rect class="f" width="7.191" height="5.562" transform="translate(119.212 114.616)"/><rect class="f" width="7.191" height="5.562" transform="translate(145.659 116.542)"/><rect class="f" width="7.191" height="5.562" transform="translate(192.633 114.616)"/><rect class="f" width="7.189" height="5.562" transform="translate(198.151 124.529)"/><rect class="f" width="7.191" height="5.562" transform="translate(170.566 121.747)"/><rect class="f" width="7.189" height="5.564" transform="translate(126.444 130.804)"/><rect class="f" width="8.684" height="5.562" transform="translate(85.428 99.861)"/><rect class="f" width="8.682" height="5.562" transform="translate(125.767 99.711)"/><rect class="f" width="8.684" height="5.562" transform="translate(182.596 57.136)"/><rect class="f" width="8.682" height="5.562" transform="translate(50.29 57.136)"/><rect class="f" width="7.189" height="5.562" transform="translate(14.789 75.392)"/><rect class="f" width="7.191" height="5.564" transform="translate(7.688 83.593)"/><rect class="f" width="7.191" height="5.564" transform="translate(48.983 77.174)"/><rect class="f" width="7.191" height="5.562" transform="translate(79.756 78.745)"/><rect class="f" width="7.191" height="5.562" transform="translate(97.066 81.525)"/><rect class="f" width="7.191" height="5.562" transform="translate(121.108 74.394)"/><rect class="f" width="7.191" height="5.562" transform="translate(147.554 76.32)"/><rect class="f" width="7.191" height="5.562" transform="translate(193.97 74.394)"/><rect class="f" width="7.191" height="5.562" transform="translate(199.487 84.307)"/><rect class="f" width="7.191" height="5.562" transform="translate(172.462 81.525)"/><rect class="f" width="7.191" height="5.562" transform="translate(128.337 90.582)"/><rect class="f" width="8.684" height="5.562" transform="translate(87.33 59.639)"/><rect class="f" width="8.684" height="5.562" transform="translate(127.667 59.489)"/><rect class="b" width="8.363" height="5.562" transform="translate(0 32.199)"/><rect class="b" width="8.684" height="5.562" transform="translate(17.316 30.744)"/><rect class="b" width="8.684" height="5.562" transform="translate(69.768 32.199)"/><rect class="b" width="8.684" height="5.562" transform="translate(103.915 32.199)"/><rect class="b" width="8.682" height="5.562" transform="translate(141.729 32.199)"/><rect class="b" width="8.684" height="5.564" transform="translate(192.631 28.881)"/></g><rect class="a" width="19.89" height="26.977" transform="translate(203.385 0)"/></svg>