<svg xmlns="http://www.w3.org/2000/svg" width="109.628" height="116.688" viewBox="0 0 109.628 116.688"><defs><style>.a{fill:#f9ed32;}.b{fill:#fbb040;}.c{fill:#231f20;}</style></defs><g transform="translate(0 0)"><g transform="translate(36.532 7.296)"><path class="a" d="M60.73,70.4H24.168v36.445h7.324v7.295h7.295v7.295H60.73v-7.295h7.295V70.4Z" transform="translate(-24.168 -70.399)"/><path class="a" d="M43.757,100.149H36.463v7.295H29.138v7.295H51.082v-7.295H43.757Z" transform="translate(-14.518 -12.641)"/></g><path class="b" d="M50.926,121.433H43.6v-7.295H36.307v-7.295H28.983V70.4H21.688v43.739h7.295v7.295h7.324v7.295H43.6v29.179H36.307V165.2H28.983V172.5H43.6V165.2h7.324V128.728h7.295v-7.295Z" transform="translate(7.55 -63.104)"/><g transform="translate(0 0)"><path class="c" d="M60.992,70.4H39.078v43.739H53.7v-7.295H46.373V77.664H60.992V99.548h7.324V70.4Z" transform="translate(41.312 -63.104)"/><rect class="c" width="7.295" height="7.295" transform="translate(95.009 36.445)"/><rect class="c" width="7.295" height="7.295" transform="translate(73.095 51.034)"/><path class="c" d="M58.221,109.924H28.983v-7.295H21.688v14.59H72.84v-14.59H65.546v7.295Z" transform="translate(7.55 -0.531)"/><rect class="c" width="7.324" height="7.295" transform="translate(65.771 94.803)"/><rect class="c" width="7.324" height="7.295" transform="translate(65.771 58.329)"/><path class="c" d="M31.628,97.523v21.884h7.295V90.229H31.628Z" transform="translate(26.848 -24.605)"/><path class="c" d="M33.953,112.113V90.229H26.658v29.179h7.295Z" transform="translate(17.199 -24.605)"/><rect class="c" width="7.324" height="7.295" transform="translate(36.533 94.803)"/><rect class="c" width="7.324" height="7.295" transform="translate(36.533 58.329)"/><path class="c" d="M36.307,75.213H72.84V67.919H21.688v7.295H36.307Z" transform="translate(7.55 -67.919)"/><rect class="c" width="7.295" height="7.295" transform="translate(29.238 51.034)"/><path class="c" d="M40.986,99.548V70.4H11.748v29.15h7.324V77.664h14.59v29.179H26.367v7.295H40.986V99.548Z" transform="translate(-11.748 -63.104)"/><rect class="c" width="7.295" height="7.295" transform="translate(7.324 36.445)"/></g></g></svg>