<svg xmlns="http://www.w3.org/2000/svg" width="85.31" height="63.649" viewBox="0 0 85.31 63.649"><defs><style>.a,.b{fill:#fff;}.a{fill-rule:evenodd;}</style></defs><g transform="translate(-701.774 -151.436)"><g transform="translate(701.774 151.436)"><path class="a" d="M740.513,161.325c0,8.488,15.354,6.056,12.481,10.323a2.42,2.42,0,0,1-1.373.879,5.859,5.859,0,0,1-3.481.031c-1.132-.392-1.712-1.13-1.712-2.746h-7.073c0-1.24-.864-7.347-1.09-9.042l-.864-6.734c-.142-1.13-.014-2.009-.779-2.009-.51,0-.651,1.115-1.7,2.433-2.025,2.559-4.219,4.286-4.219,8.289,0,.549.113.628.141,1.115,1.034-.016.354-.236,1.161-.487,0,1.162-.142,1.6-.142,2.731,0,1.617,1.586,1.821,1.586,4.49.481-.283.566-.157.722-.8,1.826,1.366.453,5.431-.2,7.143a8.247,8.247,0,0,0-.524,1.35h6.96c-.057-.682-.272-1.555-.286-2.27,1.346,1,1.331,1.381,3.335,2.127,4.552,1.682,12.326.555,15.4-2.889a7.8,7.8,0,0,0,2-2.952h.144c1.63,7.763,18.256,10.45,23.868-1.917a14.343,14.343,0,0,0,.865-2.4h-8.071c-.415,2.013-2.245,4.375-4.518,4.375-1.187,0-2.388.127-3.331-.84a3.382,3.382,0,0,1-1.015-1.95c-.6-3.218.772-9.257,3.674-11.064,1.9-1.189,6.219-1.427,6.219,3.662h7.885c0-3.64-.368-6.37-3.028-8.488-2.406-1.914-5.165-2.244-8.519-2.244a14.2,14.2,0,0,0-7.472,2.447,16.145,16.145,0,0,0-4.712,5.02l-.24.377c-.113-5.46-4.189-7.845-8.958-7.845-4.641,0-9.608,1.083-11.929,5.35a9.921,9.921,0,0,0-1.217,4.409m8.377-1.988c0-2.055,3.807-1.8,4.91-1.13.609.376.722.879.722,1.93h7.8a21.179,21.179,0,0,0-1.727,5.13,9.635,9.635,0,0,0-2.533-1.836,25.562,25.562,0,0,0-3.255-1.192c-1.769-.565-5.915-1.067-5.915-2.9M711.1,178.29l3.61-9.45c.212-.5.4-.973.623-1.554a5.574,5.574,0,0,1,.68-1.491l1.005,12.5h3.327c1.713-2.841,4.361-3.61,5.366-6.7a12.175,12.175,0,0,0,.708-3.548c.736.063.651.455.963.11a3.794,3.794,0,0,0,.368-1.35c.524-3.516-.028-4.976,2.9-8.649a7.486,7.486,0,0,1,.722-.958c.311-.3.467-.408.793-.722.835-.816,2.294-1.57,3.1-3.469.142-.314.51-.973-.17-.973h-6.863c-.536,0-2.144,3.826-2.454,4.484-.479,1.019-3.244,7.2-3.737,7.839l-.141-9.282c0-1.223-.141-2.038-.141-3.042h-6.191c-.423,0-.451.345-.564.659-.141.376-.183.517-.339.909l-4.315,10.881c-.127.329-.212.564-.339.909-.183.455-.169.643-.479.909a30.877,30.877,0,0,0-.183-3.637c-.127-1.129-.155-2.415-.268-3.7-.113-1.176-.183-2.383-.282-3.7-.071-1.05-.028-3.214-.705-3.214-7.4,0-6.332-.486-6.191,1.6l.621,6.365c.649,5.55.973,11.226,1.594,16.776.211,1.834-.437,1.505,2.821,1.505Z" transform="translate(-701.774 -151.436)"/></g><g transform="translate(702.13 187.075)"><path class="b" d="M704.639,346.537c-.009,1.117.494,1.8,1.544,1.8a1.564,1.564,0,0,0,1.594-1.382c.175-.851-.076-1.648-1.243-2.571-1.227-.967-1.737-1.767-1.493-3a2.038,2.038,0,0,1,2.122-1.693,1.933,1.933,0,0,1,2.016,2.375h-.707c.065-.826-.21-1.731-1.371-1.731a1.273,1.273,0,0,0-1.344,1.142c-.158.869.131,1.418,1.231,2.3,1.493,1.2,1.785,2.094,1.513,3.289a2.275,2.275,0,0,1-2.36,1.912,2.059,2.059,0,0,1-2.22-2.443Z" transform="translate(-703.916 -339.39)"/><path class="b" d="M738.433,357.473a7.3,7.3,0,0,0-.158,1.341c0,.9.289,1.433,1.036,1.433a1.515,1.515,0,0,0,1.368-1.082h.7a2.283,2.283,0,0,1-2.157,1.723c-1.875,0-1.8-2.031-1.463-3.608.475-2.158,1.384-3.307,2.691-3.307,1.507,0,1.9,1.263,1.473,3.006l-.122.494Zm2.787-.6a4.95,4.95,0,0,0,.158-1.054c0-.682-.224-1.22-1.024-1.22-.906,0-1.479,1.008-1.789,2.273Z" transform="translate(-731.974 -351.296)"/><path class="b" d="M766.35,356.144c.294-1.367.385-1.873.416-2.065h.7c-.024.2-.1.613-.173.948a1.874,1.874,0,0,1,1.71-1.055c.892,0,1.613.586,1.28,2.157l-.988,4.64h-.715l.971-4.554c.2-.946.013-1.573-.8-1.573-.916,0-1.5.7-1.829,2.21l-.828,3.917h-.729Z" transform="translate(-755.149 -351.296)"/><path class="b" d="M799.022,340.65h.717l-1.42,6.691H797.6Zm.6-2.783h.717l-.29,1.33h-.717Z" transform="translate(-783.169 -337.867)"/><path class="b" d="M816.61,357.493c-.348,1.762-1.1,3.4-2.72,3.4-1.685,0-1.993-1.627-1.547-3.648.5-2.279,1.529-3.267,2.671-3.267C816.778,353.973,816.969,355.68,816.61,357.493Zm-3.534-.2c-.384,1.764-.214,2.949.871,2.949,1.045,0,1.6-1.265,1.928-2.761.288-1.335.321-2.853-.912-2.853C814.176,354.63,813.454,355.536,813.076,357.295Z" transform="translate(-796.053 -351.296)"/><path class="b" d="M842.308,356.4c.228-1.054.365-1.75.456-2.262h.68c-.029.205-.078.561-.22,1.215a2.3,2.3,0,0,1,2.01-1.311l-.187.817c-1.177.03-1.9.935-2.164,2.177l-.807,3.793h-.718Z" transform="translate(-820.89 -351.352)"/><path class="b" d="M881.378,346.537c-.291,1.022-.947,2.454-2.617,2.454-1.593,0-2.52-1.187-1.742-4.835.567-2.685,1.616-4.462,3.353-4.462,1.878,0,1.941,1.692,1.866,2.417h-.724c0-.571.046-1.766-1.2-1.766-1.226,0-2.073,1.509-2.548,3.849-.651,3.235.011,4.145,1.066,4.145,1.143,0,1.658-1.291,1.8-1.8Z" transform="translate(-851.057 -339.39)"/><path class="b" d="M913.727,357.493c-.348,1.762-1.1,3.4-2.721,3.4-1.685,0-1.993-1.627-1.547-3.648.5-2.279,1.529-3.267,2.671-3.267C913.9,353.973,914.086,355.68,913.727,357.493Zm-3.535-.2c-.384,1.764-.214,2.949.871,2.949,1.045,0,1.6-1.265,1.928-2.761.288-1.335.321-2.853-.912-2.853C911.293,354.63,910.571,355.536,910.193,357.295Z" transform="translate(-878.72 -351.296)"/><path class="b" d="M938.477,347.342l2.019-9.475h.717l-2.019,9.475Z" transform="translate(-903.492 -337.867)"/><path class="b" d="M951.357,347.342l2.019-9.475h.717l-2.019,9.475Z" transform="translate(-914.451 -337.867)"/><path class="b" d="M966.746,357.473a7.282,7.282,0,0,0-.158,1.341c0,.9.289,1.433,1.035,1.433a1.515,1.515,0,0,0,1.368-1.082h.7a2.283,2.283,0,0,1-2.157,1.723c-1.874,0-1.8-2.031-1.463-3.608.476-2.158,1.384-3.307,2.691-3.307,1.506,0,1.9,1.263,1.472,3.006l-.122.494Zm2.787-.6a4.955,4.955,0,0,0,.158-1.054c0-.682-.224-1.22-1.024-1.22-.906,0-1.48,1.008-1.789,2.273Z" transform="translate(-926.899 -351.296)"/><path class="b" d="M996.579,360.417c-.367,1.729-.9,2.936-2.566,2.936a1.573,1.573,0,0,1-1.775-1.884h.709c-.015.545.131,1.258,1.122,1.258,1.072,0,1.495-.933,1.774-2.225l.173-.791a1.773,1.773,0,0,1-1.657,1.04c-1.526,0-1.694-1.629-1.313-3.377.445-2.061,1.313-3.4,2.641-3.4A1.2,1.2,0,0,1,997.014,355c.075-.324.191-.769.242-.917h.7c-.073.283-.241,1.007-.432,1.9Zm-2.825-2.96c-.31,1.525-.21,2.649.808,2.649,1.132,0,1.676-1.334,1.966-2.7.392-1.835.223-2.789-.831-2.789C994.737,354.619,994.087,355.836,993.754,357.456Z" transform="translate(-949.397 -351.296)"/><path class="b" d="M1028.665,357.473a7.294,7.294,0,0,0-.158,1.341c0,.9.289,1.433,1.036,1.433a1.515,1.515,0,0,0,1.369-1.082h.7a2.283,2.283,0,0,1-2.157,1.723c-1.874,0-1.8-2.031-1.463-3.608.475-2.158,1.384-3.307,2.691-3.307,1.507,0,1.9,1.263,1.473,3.006l-.122.494Zm2.787-.6a4.951,4.951,0,0,0,.158-1.054c0-.682-.224-1.22-1.024-1.22-.906,0-1.48,1.008-1.789,2.273Z" transform="translate(-979.604 -351.296)"/><path class="b" d="M1072.694,359.279c-.077.372-.248,1.149-.29,1.492h-.7a6.765,6.765,0,0,1,.147-.827,1.73,1.73,0,0,1-1.664.944c-1.24,0-1.593-1.063-1.357-2.129a2.43,2.43,0,0,1,2.28-1.859c.45-.08.936-.109,1.426-.148l.162-.767c.151-.729.042-1.395-.985-1.395-.735,0-1.078.411-1.276,1.209h-.7a1.975,1.975,0,0,1,2.067-1.827c1.183,0,1.88.646,1.588,2.018Zm-.273-1.93c-.418.038-.833.064-1.208.131a1.758,1.758,0,0,0-1.665,1.353c-.14.648.024,1.418.862,1.418.987,0,1.556-.773,1.887-2.322Z" transform="translate(-1014.487 -351.296)"/><path class="b" d="M1100.023,356.144c.295-1.367.386-1.873.417-2.065h.7c-.024.2-.1.613-.173.948a1.873,1.873,0,0,1,1.709-1.055c.892,0,1.613.586,1.281,2.157l-.989,4.64h-.715l.971-4.554c.2-.946.013-1.573-.8-1.573-.916,0-1.5.7-1.829,2.21l-.828,3.917h-.729Z" transform="translate(-1040.277 -351.296)"/><path class="b" d="M1138.554,337.867l-1.663,7.81c-.13.594-.263,1.232-.33,1.664h-.7c.015-.162.064-.459.151-.881a1.8,1.8,0,0,1-1.66,1c-1.456,0-1.741-1.561-1.29-3.638.366-1.69,1.209-3.277,2.66-3.277a1.247,1.247,0,0,1,1.355.911l.763-3.588Zm-4.789,6.047c-.334,1.553-.319,2.913.831,2.913,1.106,0,1.606-1.254,1.994-3.059.378-1.788.145-2.575-.876-2.575C1134.783,341.192,1134.126,342.263,1133.764,343.914Z" transform="translate(-1069.135 -337.867)"/><path class="b" d="M708.094,436.453l-1.346,6.334c-.24,1.108-.081,2.174,1.3,2.174,1.2,0,1.614-.92,1.888-2.185l1.346-6.322h.731l-1.348,6.342c-.357,1.66-.866,2.818-2.769,2.818-1.623,0-2.246-1.1-1.9-2.74l1.37-6.42Z" transform="translate(-705.571 -420.067)"/><path class="b" d="M739.953,452.144c.295-1.367.385-1.873.417-2.065h.7c-.025.2-.1.613-.173.948a1.873,1.873,0,0,1,1.709-1.054c.892,0,1.613.586,1.28,2.157l-.988,4.64h-.715l.971-4.554c.2-.946.013-1.573-.8-1.573-.916,0-1.505.7-1.829,2.21l-.828,3.917h-.729Z" transform="translate(-733.139 -431.34)"/><path class="b" d="M772.623,436.65h.717l-1.42,6.691H771.2Zm.6-2.783h.718l-.29,1.33h-.718Z" transform="translate(-760.019 -417.911)"/><path class="b" d="M789.677,450.612c.1,2.76.177,5.29.166,5.851h.013c.117-.353,1.557-3.342,2.752-5.851h.737L790.08,457.3h-.8l-.319-6.691Z" transform="translate(-776.3 -431.872)"/><path class="b" d="M814.111,453.473a7.282,7.282,0,0,0-.158,1.341c0,.9.289,1.433,1.036,1.433a1.515,1.515,0,0,0,1.368-1.082h.7a2.283,2.283,0,0,1-2.157,1.723c-1.874,0-1.8-2.031-1.463-3.608.475-2.158,1.384-3.307,2.691-3.307,1.507,0,1.9,1.263,1.473,3.006l-.122.494Zm2.787-.6a4.94,4.94,0,0,0,.158-1.054c0-.682-.224-1.219-1.024-1.219-.906,0-1.48,1.008-1.789,2.273Z" transform="translate(-796.976 -431.34)"/><path class="b" d="M841.989,452.4c.228-1.054.365-1.75.457-2.262h.68c-.029.205-.078.561-.22,1.216a2.3,2.3,0,0,1,2.01-1.311l-.187.817c-1.177.03-1.9.935-2.164,2.177l-.807,3.793h-.717Z" transform="translate(-820.619 -431.395)"/><path class="b" d="M862.139,454.987a1.08,1.08,0,0,0,1.136,1.277,1.052,1.052,0,0,0,1.135-.918c.151-.738-.118-1.224-.969-1.81-1.066-.735-1.372-1.283-1.162-2.246a1.635,1.635,0,0,1,1.7-1.317,1.51,1.51,0,0,1,1.623,1.795h-.683c.022-.552-.167-1.181-.984-1.181a.918.918,0,0,0-.963.774c-.16.689.118,1.063.861,1.573,1.25.85,1.5,1.555,1.276,2.528a1.789,1.789,0,0,1-1.9,1.416,1.61,1.61,0,0,1-1.752-1.89Z" transform="translate(-837.99 -431.34)"/><path class="b" d="M889.1,436.65h.717l-1.42,6.691h-.717Zm.6-2.783h.717l-.29,1.33h-.717Z" transform="translate(-860.27 -417.911)"/><path class="b" d="M903.379,441.469h1l.395-1.823h.7l-.395,1.823h1.174l-.134.629h-1.176l-.96,4.571c-.113.531-.129.967.461.967a2.679,2.679,0,0,0,.595-.073l-.128.585a2.11,2.11,0,0,1-.718.106c-.784,0-1.189-.381-.968-1.412l1.014-4.744h-1Z" transform="translate(-873.461 -422.729)"/><path class="b" d="M916.034,450.612c.23,3.8.262,5.287.247,5.945h.013c.328-.812,1.441-3.31,2.663-5.945h.751l-3.319,7.133c-.9,1.926-1.34,2.138-2.288,2.138a3,3,0,0,1-.59-.071l.149-.682a2.267,2.267,0,0,0,.55.065c.689,0,.985-.466,1.54-1.651l-.458-6.932Z" transform="translate(-882.393 -431.872)"/><path class="b" d="M968.1,442.537c-.29,1.022-.946,2.454-2.617,2.454-1.593,0-2.52-1.187-1.742-4.835.567-2.685,1.616-4.462,3.353-4.462,1.878,0,1.941,1.692,1.866,2.417h-.724c0-.571.046-1.766-1.2-1.766-1.227,0-2.073,1.51-2.548,3.849-.651,3.235.011,4.145,1.066,4.145,1.142,0,1.658-1.291,1.8-1.8Z" transform="translate(-924.888 -419.434)"/><path class="b" d="M1000.445,453.493c-.348,1.762-1.1,3.4-2.72,3.4-1.685,0-1.992-1.627-1.547-3.648.5-2.28,1.529-3.268,2.671-3.268C1000.613,449.973,1000.8,451.68,1000.445,453.493Zm-3.535-.2c-.384,1.764-.214,2.949.871,2.949,1.045,0,1.6-1.265,1.928-2.761.288-1.335.321-2.853-.912-2.853C998.011,450.63,997.289,451.536,996.911,453.295Z" transform="translate(-952.536 -431.34)"/><path class="b" d="M1026.2,452.087c.237-1.135.348-1.675.4-2.007h.685a9.032,9.032,0,0,1-.149.9,1.846,1.846,0,0,1,1.609-1.006,1.035,1.035,0,0,1,1.156,1.021,1.953,1.953,0,0,1,1.715-1.021c.761,0,1.486.384,1.151,1.939l-1.035,4.858h-.7l1.011-4.749c.151-.731.114-1.38-.689-1.38-.9,0-1.423.917-1.618,1.844l-.908,4.285h-.713l1-4.723c.2-.909.047-1.4-.653-1.4-.836,0-1.414.841-1.644,1.9l-.906,4.225h-.715Z" transform="translate(-977.593 -431.34)"/><path class="b" d="M1074.275,452.087c.237-1.135.348-1.675.4-2.007h.684a9.032,9.032,0,0,1-.149.9,1.846,1.846,0,0,1,1.609-1.006,1.035,1.035,0,0,1,1.156,1.021,1.953,1.953,0,0,1,1.715-1.021c.76,0,1.486.384,1.151,1.939l-1.035,4.858h-.7l1.01-4.749c.151-.731.114-1.38-.689-1.38-.9,0-1.422.917-1.618,1.844l-.908,4.285h-.713l1-4.723c.2-.909.047-1.4-.653-1.4-.836,0-1.414.841-1.644,1.9l-.906,4.225h-.715Z" transform="translate(-1018.548 -431.34)"/><path class="b" d="M1122.773,436.65h.717l-1.42,6.691h-.717Zm.6-2.783h.717l-.29,1.33h-.717Z" transform="translate(-1059.092 -417.911)"/><path class="b" d="M1135.412,454.987a1.08,1.08,0,0,0,1.135,1.277,1.052,1.052,0,0,0,1.135-.918c.151-.738-.118-1.224-.969-1.81-1.066-.735-1.372-1.283-1.162-2.246a1.635,1.635,0,0,1,1.7-1.317,1.51,1.51,0,0,1,1.622,1.795h-.683c.022-.552-.167-1.181-.984-1.181a.918.918,0,0,0-.963.774c-.16.689.118,1.063.861,1.573,1.25.85,1.5,1.555,1.276,2.528a1.789,1.789,0,0,1-1.9,1.416,1.61,1.61,0,0,1-1.752-1.89Z" transform="translate(-1070.58 -431.34)"/><path class="b" d="M1161.411,454.987a1.08,1.08,0,0,0,1.135,1.277,1.052,1.052,0,0,0,1.136-.918c.151-.738-.118-1.224-.969-1.81-1.066-.735-1.372-1.283-1.162-2.246a1.635,1.635,0,0,1,1.7-1.317,1.51,1.51,0,0,1,1.622,1.795h-.683c.022-.552-.167-1.181-.984-1.181a.918.918,0,0,0-.963.774c-.16.689.118,1.063.861,1.573,1.25.85,1.5,1.555,1.276,2.528a1.789,1.789,0,0,1-1.9,1.416,1.61,1.61,0,0,1-1.752-1.89Z" transform="translate(-1092.397 -431.34)"/><path class="b" d="M1188.372,436.65h.717l-1.42,6.691h-.718Zm.6-2.783h.718l-.29,1.33h-.717Z" transform="translate(-1114.275 -417.911)"/><path class="b" d="M1205.962,453.493c-.348,1.762-1.1,3.4-2.72,3.4-1.686,0-1.992-1.627-1.548-3.648.5-2.28,1.529-3.268,2.672-3.268C1206.13,449.973,1206.32,451.68,1205.962,453.493Zm-3.535-.2c-.384,1.764-.214,2.949.871,2.949,1.045,0,1.6-1.265,1.928-2.761.288-1.335.322-2.853-.911-2.853C1203.527,450.63,1202.805,451.536,1202.427,453.295Z" transform="translate(-1126.413 -431.34)"/><path class="b" d="M1231.7,452.144c.295-1.367.386-1.873.417-2.065h.7c-.024.2-.1.613-.173.948a1.873,1.873,0,0,1,1.709-1.054c.892,0,1.613.586,1.281,2.157l-.988,4.64h-.715l.971-4.554c.2-.946.013-1.573-.8-1.573-.916,0-1.505.7-1.829,2.21l-.828,3.917h-.729Z" transform="translate(-1150.761 -431.34)"/></g></g></svg>